:::'###::::'##::: ##:'####:'##::::'##::::'###::::'##::: ##::'######::::::'###::::
::'## ##::: ###:: ##:. ##:: ###::'###:::'## ##::: ###:: ##:'##... ##::::'## ##:::
:'##:. ##:: ####: ##:: ##:: ####'####::'##:. ##:: ####: ##: ##:::..::::'##:. ##::
'##:::. ##: ## ## ##:: ##:: ## ### ##:'##:::. ##: ## ## ##: ##::'####:'##:::. ##:
 #########: ##. ####:: ##:: ##. #: ##: #########: ##. ####: ##::: ##:: #########:
 ##.... ##: ##:. ###:: ##:: ##:.:: ##: ##.... ##: ##:. ###: ##::: ##:: ##.... ##:
 ##:::: ##: ##::. ##:'####: ##:::: ##: ##:::: ##: ##::. ##:. ######::: ##:::: ##:
..:::::..::..::::..::....::..:::::..::..:::::..::..::::..:::......::::..:::::..::

:::::::::'##::::'##:'####:'########::'########::'#######:::::::::::::::::::::::
::::::::: ##:::: ##:. ##:: ##.... ##: ##.....::'##.... ##::::::::::::::::::::::
::::::::: ##:::: ##:: ##:: ##:::: ##: ##::::::: ##:::: ##::::::::::::::::::::::
::::::::: ##:::: ##:: ##:: ##:::: ##: ######::: ##:::: ##::::::::::::::::::::::
:::::::::. ##:: ##::: ##:: ##:::: ##: ##...:::: ##:::: ##::::::::::::::::::::::
::::::::::. ## ##:::: ##:: ##:::: ##: ##::::::: ##:::: ##::::::::::::::::::::::
:::::::::::. ###::::'####: ########:: ########:. #######:::::::::::::::::::::::
::::::::::::...:::::....::........:::........:::.......:::::::::::::::::::::::: 
http://en.wikipedia.org/wiki/Havoc_in_Heaven	         
http://www.imdb.com/title/tt0059855/

PS3/XBOX360 TESTED AND FULLY WORKING


This is my third torrent! Long time downloader ready to start sharing my rare finds. Took some time to find this and I don't see it anywhere now. This is was coded unrestricted to ensure highest quality on every file. Thanks community and especially the uber wonderful bay!

This film is Havoc in heaven or The Monkey King made in 1964. This is one of the architects of modern anime. It's ancient themes are now widely employed as the staple of anime movies. This is a digital remastering with extra footage added. I have included 3 versions. Original Chinese audio and english subs, English narration with subs, and English narration without subs. High quality.

ANIMANGA-VIDEO

Complete name                    : The.Monkey.King.1964.DVDRip. ENGLISH-NOSUBS.avi
Format                           : AVI
Format/Info                      : Audio Video Interleave
File size                        : 769 MiB
Duration                         : 1h 53mn
Overall bit rate                 : 943 Kbps
Writing library                  : VirtualDub build 32817/release

Video
ID                               : 0
Format                           : MPEG-4 Visual
Format profile                   : Simple@L3
Format settings, BVOP            : Yes
Format settings, QPel            : No
Format settings, GMC             : No warppoints
Format settings, Matrix          : Default (H.263)
Muxing mode                      : Packed bitstream
Codec ID                         : XVID
Codec ID/Hint                    : XviD
Duration                         : 1h 53mn
Bit rate                         : 678 Kbps
Width                            : 640 pixels
Height                           : 480 pixels
Display aspect ratio             : 4:3
Frame rate                       : 25.000 fps
Resolution                       : 8 bits
Colorimetry                      : 4:2:0
Scan type                        : Progressive
Bits/(Pixel*Frame)               : 0.088
Stream size                      : 552 MiB (72%)
Writing library                  : XviD 1.1.0 Beta2 (UTC 2005-04-04)

Audio
ID                               : 1
Format                           : MPEG Audio
Format version                   : Version 1
Format profile                   : Layer 3
Format_Settings_Mode             : Joint stereo
Codec ID                         : 55
Codec ID/Hint                    : MP3
Duration                         : 1h 53mn
Bit rate mode                    : Constant
Bit rate                         : 256 Kbps
Channel(s)                       : 2 channels
Sampling rate                    : 48.0 KHz
Stream size                      : 209 MiB (27%)
Alignment                        : Split accross interleaves
Interleave, duration             : 40 ms (1.00 video frame)
Interleave, preload duration     : 500 ms
Writing library                  : LAME3.98.2

Complete name                    : The.Monkey.King.1964.DVDRip.ENGLISH-NARRATOR-SUBBEDENG.avi
Format                           : AVI
Format/Info                      : Audio Video Interleave
File size                        : 769 MiB
Duration                         : 1h 53mn
Overall bit rate                 : 943 Kbps
Writing library                  : VirtualDub build 32817/release

Video
ID                               : 0
Format                           : MPEG-4 Visual
Format profile                   : Simple@L3
Format settings, BVOP            : Yes
Format settings, QPel            : No
Format settings, GMC             : No warppoints
Format settings, Matrix          : Default (H.263)
Muxing mode                      : Packed bitstream
Codec ID                         : XVID
Codec ID/Hint                    : XviD
Duration                         : 1h 53mn
Bit rate                         : 678 Kbps
Width                            : 640 pixels
Height                           : 480 pixels
Display aspect ratio             : 4:3
Frame rate                       : 25.000 fps
Resolution                       : 8 bits
Colorimetry                      : 4:2:0
Scan type                        : Progressive
Bits/(Pixel*Frame)               : 0.088
Stream size                      : 552 MiB (72%)
Writing library                  : XviD 1.1.0 Beta2 (UTC 2005-04-04)

Audio
ID                               : 1
Format                           : MPEG Audio
Format version                   : Version 1
Format profile                   : Layer 3
Format_Settings_Mode             : Joint stereo
Codec ID                         : 55
Codec ID/Hint                    : MP3
Duration                         : 1h 53mn
Bit rate mode                    : Constant
Bit rate                         : 256 Kbps
Channel(s)                       : 2 channels
Sampling rate                    : 48.0 KHz
Stream size                      : 209 MiB (27%)
Alignment                        : Split accross interleaves
Interleave, duration             : 40 ms (1.00 video frame)
Interleave, preload duration     : 500 ms
Writing library                  : LAME3.98.2

Complete name                    : The.Monkey.King.1964.DVDRip.ENGSUBBED.CHINESEAUDIO.avi
Format                           : AVI
Format/Info                      : Audio Video Interleave
File size                        : 769 MiB
Duration                         : 1h 53mn
Overall bit rate                 : 943 Kbps
Writing library                  : VirtualDub build 32817/release

Video
ID                               : 0
Format                           : MPEG-4 Visual
Format profile                   : Simple@L3
Format settings, BVOP            : Yes
Format settings, QPel            : No
Format settings, GMC             : No warppoints
Format settings, Matrix          : Default (H.263)
Muxing mode                      : Packed bitstream
Codec ID                         : XVID
Codec ID/Hint                    : XviD
Duration                         : 1h 53mn
Bit rate                         : 678 Kbps
Width                            : 640 pixels
Height                           : 480 pixels
Display aspect ratio             : 4:3
Frame rate                       : 25.000 fps
Resolution                       : 8 bits
Colorimetry                      : 4:2:0
Scan type                        : Progressive
Bits/(Pixel*Frame)               : 0.088
Stream size                      : 552 MiB (72%)
Writing library                  : XviD 1.1.0 Beta2 (UTC 2005-04-04)

Audio
ID                               : 1
Format                           : MPEG Audio
Format version                   : Version 1
Format profile                   : Layer 3
Format_Settings_Mode             : Joint stereo
Codec ID                         : 55
Codec ID/Hint                    : MP3
Duration                         : 1h 53mn
Bit rate mode                    : Constant
Bit rate                         : 256 Kbps
Channel(s)                       : 2 channels
Sampling rate                    : 48.0 KHz
Stream size                      : 209 MiB (27%)
Alignment                        : Split accross interleaves
Interleave, duration             : 40 ms (1.00 video frame)
Interleave, preload duration     : 500 ms
Writing library                  : LAME3.98.2






